# File created by Blade
# Date/Time:  Tue Apr 07 20:29:43 2015
#---------------------------------------------------------
:version 1.10
:name HOM
:units
  mass 1.0
  length 1.000000
  angle deg
:documentation
     Acclaim Skeleton File
:root
   axis xyz
   order TX TY TZ RX RY RZ
   position 0.000000 0.000000 0.000000
   orientation 0 0 0
:bonedata
   begin
      id 1
      name Spine_dum
      direction 0.000000 1.000000 0.000000
      length 4.885285
      axis 0.0 0.0 0.0 xyz
   end
   begin
      id 2
      name LeftUpLeg_dum
      direction 1.000000 0.000000 0.000000
      length 2.672193
      axis 0.0 0.0 0.0 xyz
   end
   begin
      id 3
      name RightUpLeg_dum
      direction -1.000000 0.000000 0.000000
      length 2.672193
      axis 0.0 0.0 0.0 xyz
   end
   begin
      id 4
      name Spine
      direction 0.000000 1.000000 0.000000
      length 0.000000
      axis 0.0 0.0 0.0 xyz
      dof rx ry rz
   end
   begin
      id 5
      name Spine_dum1
      direction 0.000000 1.000000 0.000000
      length 16.494159
      axis 0.0 0.0 0.0 xyz
   end
   begin
      id 6
      name Spine_dum2
      direction 0.000000 1.000000 0.000000
      length 10.663448
      axis 0.0 0.0 0.0 xyz
   end
   begin
      id 7
      name Spine_dum3
      direction 0.000000 1.000000 0.000000
      length 10.663448
      axis 0.0 0.0 0.0 xyz
   end
   begin
      id 8
      name Head
      direction 0.000000 1.000000 0.000000
      length 4.527550
      axis 0.0 0.0 0.0 xyz
      dof rx ry rz
   end
   begin
      id 9
      name LeftShoulder
      direction 1.000000 0.000000 0.000000
      length 7.531907
      axis 0.0 0.0 -90.0 xyz
      dof rx ry rz
   end
   begin
      id 10
      name LeftArm
      direction 1.000000 0.000000 0.000000
      length 10.229199
      axis 0.0 0.0 -90.0 xyz
      dof rx ry rz
   end
   begin
      id 11
      name LeftForeArm
      direction 1.000000 0.000000 0.000000
      length 8.673495
      axis 0.0 0.0 -90.0 xyz
      dof ry rz rx
   end
   begin
      id 12
      name LeftHand
      direction 0.000000 0.000000 0.000000
      length 0.000000
      axis 0.0 0.0 -90.0 xyz
      dof rx ry rz
   end
   begin
      id 13
      name LeftHand_dum1
      direction 0.000000 0.000000 0.000000
      length 0.000000
      axis 0.0 0.0 -90.0 xyz
   end
   begin
      id 14
      name LeftHand_dum2
      direction 1.000000 0.000000 0.000000
      length 3.937000
      axis 0.0 0.0 -90.0 xyz
   end
   begin
      id 15
      name LeftHandThumb1
      direction 0.000000 0.000000 1.000000
      length 3.937000
      axis 0.0 0.0 -90.0 xyz
      dof rx rz ry
   end
   begin
      id 16
      name RightShoulder
      direction -1.000000 0.000000 0.000000
      length 7.531907
      axis 0.0 0.0 90.0 xyz
      dof rx ry rz
   end
   begin
      id 17
      name RightArm
      direction -1.000000 0.000000 0.000000
      length 10.229199
      axis 0.0 0.0 90.0 xyz
      dof rx ry rz
   end
   begin
      id 18
      name RightForeArm
      direction -1.000000 0.000000 0.000000
      length 8.673495
      axis 0.0 0.0 90.0 xyz
      dof ry rz rx
   end
   begin
      id 19
      name RightHand
      direction 0.000000 0.000000 0.000000
      length 0.000000
      axis 0.0 0.0 90.0 xyz
      dof rx ry rz
   end
   begin
      id 20
      name RightHand_dum1
      direction 0.000000 0.000000 0.000000
      length 0.000000
      axis 0.0 0.0 90.0 xyz
   end
   begin
      id 21
      name RightHand_dum2
      direction -1.000000 0.000000 0.000000
      length 3.937000
      axis 0.0 0.0 90.0 xyz
   end
   begin
      id 22
      name RightHandThumb1
      direction 0.000000 0.000000 1.000000
      length 3.937000
      axis 0.0 0.0 90.0 xyz
      dof rx rz ry
   end
   begin
      id 23
      name LeftUpLeg
      direction 0.000000 -1.000000 0.000000
      length 16.263388
      axis 0.0 0.0 0.0 xyz
      dof rx ry rz
   end
   begin
      id 24
      name LeftLeg
      direction 0.000000 -1.000000 0.000000
      length 14.328163
      axis 0.0 0.0 0.0 xyz
      dof rx ry rz
   end
   begin
      id 25
      name LeftFoot
      direction 0.000000 -0.258819 0.965926
      length 5.031290
      axis 15.0 0.0 0.0 xyz
      dof rx ry rz
   end
   begin
      id 26
      name LeftToeBase
      direction 0.000000 0.000000 1.000000
      length 2.952750
      axis 0.0 0.0 0.0 xyz
      dof rx ry rz
   end
   begin
      id 27
      name RightUpLeg
      direction 0.000000 -1.000000 0.000000
      length 16.263388
      axis 0.0 0.0 0.0 xyz
      dof rx ry rz
   end
   begin
      id 28
      name RightLeg
      direction 0.000000 -1.000000 0.000000
      length 14.328163
      axis 0.0 0.0 0.0 xyz
      dof rx ry rz
   end
   begin
      id 29
      name RightFoot
      direction 0.000000 -0.258819 0.965926
      length 5.031290
      axis 15.0 0.0 0.0 xyz
      dof rx ry rz
   end
   begin
      id 30
      name RightToeBase
      direction 0.000000 0.000000 1.000000
      length 2.952750
      axis 0.0 0.0 0.0 xyz
      dof rx ry rz
   end
:hierarchy
   begin
      root Spine_dum LeftUpLeg_dum RightUpLeg_dum
      Spine_dum Spine
      LeftUpLeg_dum LeftUpLeg
      RightUpLeg_dum RightUpLeg
      Spine Spine_dum1 Spine_dum2 Spine_dum3
      Spine_dum1 Head
      Spine_dum2 LeftShoulder
      Spine_dum3 RightShoulder
      LeftShoulder LeftArm
      LeftArm LeftForeArm
      LeftForeArm LeftHand
      LeftHand LeftHand_dum1 LeftHand_dum2
      LeftHand_dum1 LeftHandThumb1
      RightShoulder RightArm
      RightArm RightForeArm
      RightForeArm RightHand
      RightHand RightHand_dum1 RightHand_dum2
      RightHand_dum1 RightHandThumb1
      LeftUpLeg LeftLeg
      LeftLeg LeftFoot
      LeftFoot LeftToeBase
      RightUpLeg RightLeg
      RightLeg RightFoot
      RightFoot RightToeBase
   end

# File created by Blade
# Date/Time:  Tue Apr 07 20:29:34 2015
# Frame Rate: 120.000 fps
#------------------------------------------------------
:FULLY-SPECIFIED
:DEGREES
115
root 1.347789 32.782701 -2.859845 9.318717 4.137335 0.044204
Spine -12.012408 -4.602195 -0.614372
Head 15.643592 4.495187 -1.150839
LeftShoulder -21.096177 44.285197 12.577564
LeftArm 58.224194 -35.026769 -72.057775
LeftForeArm 2.750282 -0.000000 1.339349
LeftHand 5.398089 0.000000 2.588226
LeftHandThumb1 -26.253704 0.000000 33.147579
RightShoulder -6.890094 0.478248 -25.096333
RightArm 9.773234 14.204697 54.651991
RightForeArm -7.381103 -0.000000 5.896393
RightHand 5.616508 -0.000000 -5.591338
RightHandThumb1 -24.326973 -0.000000 -32.862282
LeftUpLeg -7.467265 -7.757767 1.127947
LeftLeg 4.440933 -0.000000 -0.000000
LeftFoot -9.226578 10.839559 -14.992486
LeftToeBase -6.808269 -0.000000 0.000000
RightUpLeg -2.264749 -5.604377 -0.187048
RightLeg -3.448829 -0.000000 0.000000
RightFoot -6.443951 -5.064932 7.148304
RightToeBase -1.649633 -0.000000 0.000000
116
root 1.364905 32.792510 -2.845004 9.377662 4.172779 0.121454
Spine -12.047181 -4.568091 -0.747738
Head 15.627257 4.561540 -1.023865
LeftShoulder -21.174450 44.474445 12.256410
LeftArm 58.298516 -34.470113 -72.546496
LeftForeArm 2.890718 -0.000000 1.311876
LeftHand 5.447807 -0.000000 2.274250
LeftHandThumb1 -26.253704 0.000000 33.147579
RightShoulder -6.927720 0.341716 -24.836296
RightArm 9.747477 13.683502 55.127243
RightForeArm -7.257906 0.000000 5.981571
RightHand 5.374087 0.000000 -5.587571
RightHandThumb1 -24.326973 -0.000000 -32.862282
LeftUpLeg -7.532756 -7.269913 0.967351
LeftLeg 4.427941 -0.000000 -0.000000
LeftFoot -8.617418 10.642773 -14.478233
LeftToeBase -7.496828 -0.000000 0.000000
RightUpLeg -2.310690 -5.710294 -0.287817
RightLeg -3.400072 -0.000000 0.000000
RightFoot -6.396175 -4.963056 7.213940
RightToeBase -1.735976 -0.000000 0.000000
117
root 1.382289 32.804861 -2.830977 9.454799 4.238260 0.244133
Spine -12.104575 -4.585218 -0.934650
Head 15.643623 4.642760 -0.884501
LeftShoulder -21.185113 44.585323 12.018488
LeftArm 58.172448 -33.818286 -72.837712
LeftForeArm 3.005029 -0.000000 1.240366
LeftHand 5.470553 -0.000000 2.328248
LeftHandThumb1 -26.253704 0.000000 33.147579
RightShoulder -6.963671 0.170368 -24.598787
RightArm 9.786958 13.323901 55.730602
RightForeArm -7.443788 0.000000 5.961971
RightHand 5.492171 -0.000000 -5.234942
RightHandThumb1 -24.326973 -0.000000 -32.862282
LeftUpLeg -7.583385 -6.758361 0.763225
LeftLeg 4.347925 -0.000000 -0.000000
LeftFoot -7.978262 10.345191 -14.088920
LeftToeBase -8.022989 -0.000000 0.000000
RightUpLeg -2.355388 -5.802170 -0.430867
RightLeg -3.386027 -0.000000 0.000000
RightFoot -6.340324 -4.924988 7.326127
RightToeBase -1.851453 -0.000000 0.000000
118
root 1.399299 32.820557 -2.812464 9.496952 4.330529 0.395973
Spine -12.130148 -4.627348 -1.177793
Head 15.680942 4.729636 -0.671820
LeftShoulder -21.189818 44.709660 11.848488
LeftArm 57.965775 -32.980423 -73.033019
LeftForeArm 2.829452 0.000000 1.207464
LeftHand 5.604288 -0.000000 2.306824
LeftHandThumb1 -26.253704 0.000000 33.147579
RightShoulder -6.968757 0.021338 -24.273962
RightArm 9.789225 12.927703 56.228649
RightForeArm -7.356902 -0.000000 5.902061
RightHand 5.359670 -0.000000 -5.256838
RightHandThumb1 -24.326973 -0.000000 -32.862282
LeftUpLeg -7.532345 -6.329720 0.543722
LeftLeg 4.142942 -0.000000 -0.000000
LeftFoot -7.340618 10.067242 -13.831533
LeftToeBase -8.427443 -0.000000 0.000000
RightUpLeg -2.277401 -5.749995 -0.612749
RightLeg -3.522806 -0.000000 0.000000
RightFoot -6.212938 -5.065089 7.471332
RightToeBase -1.870056 -0.000000 0.000000
